<svg xmlns="http://www.w3.org/2000/svg" width="1440" height="900" viewBox="0 0 1440 900" role="img" aria-label="MMO GUI desktop screenshot with Preview on Headphones button, waveform, and warm analog meters">
  <defs>
    <linearGradient id="bg" x1="0" y1="0" x2="1" y2="1">
      <stop offset="0%" stop-color="#f8efe3" />
      <stop offset="55%" stop-color="#f2dcc3" />
      <stop offset="100%" stop-color="#ead0b1" />
    </linearGradient>
    <linearGradient id="panel" x1="0" y1="0" x2="1" y2="1">
      <stop offset="0%" stop-color="#fff8ef" />
      <stop offset="100%" stop-color="#f4e1ca" />
    </linearGradient>
    <linearGradient id="button" x1="0" y1="0" x2="1" y2="1">
      <stop offset="0%" stop-color="#b45918" />
      <stop offset="52%" stop-color="#e3832f" />
      <stop offset="100%" stop-color="#f3b058" />
    </linearGradient>
    <linearGradient id="meter" x1="0" y1="0" x2="1" y2="0">
      <stop offset="0%" stop-color="#20c997" />
      <stop offset="65%" stop-color="#f2aa2b" />
      <stop offset="100%" stop-color="#df4f2d" />
    </linearGradient>
  </defs>
  <rect width="1440" height="900" fill="url(#bg)" />
  <rect x="96" y="76" width="1248" height="748" rx="18" fill="url(#panel)" stroke="#d7b087" stroke-width="2" />

  <text x="144" y="148" font-family="Segoe UI, Arial, sans-serif" font-size="36" font-weight="700" fill="#6c3511">MMO GUI Dev Shell</text>
  <text x="144" y="188" font-family="Segoe UI, Arial, sans-serif" font-size="22" fill="#7c4a20">Audition (A/B)</text>

  <rect x="144" y="224" width="280" height="58" rx="10" fill="#fff" stroke="#d8b58d" />
  <text x="164" y="260" font-family="Consolas, monospace" font-size="19" fill="#633315">JOB.001</text>
  <rect x="442" y="224" width="282" height="58" rx="10" fill="#fff" stroke="#d8b58d" />
  <text x="462" y="260" font-family="Consolas, monospace" font-size="19" fill="#633315">output slot 0</text>

  <rect x="742" y="224" width="210" height="58" rx="10" fill="#045982" />
  <text x="778" y="260" font-family="Segoe UI, Arial, sans-serif" font-size="19" fill="#fff">Play Output</text>

  <rect x="972" y="224" width="322" height="58" rx="10" fill="url(#button)" />
  <text x="1004" y="260" font-family="Segoe UI, Arial, sans-serif" font-size="22" font-weight="700" fill="#2a1708">Preview on Headphones</text>

  <rect x="144" y="316" width="1150" height="340" rx="14" fill="#fef4e8" stroke="#e3bd93" />
  <text x="178" y="358" font-family="Segoe UI, Arial, sans-serif" font-size="18" font-weight="700" letter-spacing="2" fill="#8d4a17">HEADPHONE VIEW</text>
  <text x="1118" y="358" font-family="Consolas, monospace" font-size="20" fill="#7f3f16">-9.6 dBFS</text>

  <rect x="178" y="380" width="1082" height="154" rx="10" fill="#2d1d10" stroke="#bb8b5e" />
  <g fill="#f0bf83" opacity="0.92">
    <rect x="198" y="490" width="22" height="28" rx="7" />
    <rect x="230" y="472" width="22" height="46" rx="7" />
    <rect x="262" y="436" width="22" height="82" rx="7" />
    <rect x="294" y="414" width="22" height="104" rx="7" />
    <rect x="326" y="396" width="22" height="122" rx="7" />
    <rect x="358" y="432" width="22" height="86" rx="7" />
    <rect x="390" y="456" width="22" height="62" rx="7" />
    <rect x="422" y="474" width="22" height="44" rx="7" />
    <rect x="454" y="486" width="22" height="32" rx="7" />
    <rect x="486" y="468" width="22" height="50" rx="7" />
    <rect x="518" y="438" width="22" height="80" rx="7" />
    <rect x="550" y="412" width="22" height="106" rx="7" />
    <rect x="582" y="394" width="22" height="124" rx="7" />
    <rect x="614" y="420" width="22" height="98" rx="7" />
    <rect x="646" y="446" width="22" height="72" rx="7" />
    <rect x="678" y="468" width="22" height="50" rx="7" />
    <rect x="710" y="488" width="22" height="30" rx="7" />
    <rect x="742" y="470" width="22" height="48" rx="7" />
    <rect x="774" y="438" width="22" height="80" rx="7" />
    <rect x="806" y="404" width="22" height="114" rx="7" />
    <rect x="838" y="386" width="22" height="132" rx="7" />
    <rect x="870" y="404" width="22" height="114" rx="7" />
    <rect x="902" y="432" width="22" height="86" rx="7" />
    <rect x="934" y="458" width="22" height="60" rx="7" />
    <rect x="966" y="478" width="22" height="40" rx="7" />
    <rect x="998" y="492" width="22" height="26" rx="7" />
    <rect x="1030" y="474" width="22" height="44" rx="7" />
    <rect x="1062" y="442" width="22" height="76" rx="7" />
    <rect x="1094" y="406" width="22" height="112" rx="7" />
    <rect x="1126" y="392" width="22" height="126" rx="7" />
    <rect x="1158" y="422" width="22" height="96" rx="7" />
    <rect x="1190" y="454" width="22" height="64" rx="7" />
  </g>

  <text x="178" y="585" font-family="Segoe UI, Arial, sans-serif" font-size="20" font-weight="700" fill="#8d4a17">L</text>
  <rect x="206" y="568" width="1054" height="24" rx="12" fill="#d8c2ab" />
  <rect x="206" y="568" width="882" height="24" rx="12" fill="url(#meter)" />

  <text x="178" y="627" font-family="Segoe UI, Arial, sans-serif" font-size="20" font-weight="700" fill="#8d4a17">R</text>
  <rect x="206" y="610" width="1054" height="24" rx="12" fill="#d8c2ab" />
  <rect x="206" y="610" width="704" height="24" rx="12" fill="url(#meter)" />
</svg>
